<svg id="Calque_1" data-name="Calque 1" xmlns="http://www.w3.org/2000/svg" viewBox="0 0 500 108"><defs><style>.cls-1{fill:#fff;}</style></defs><title>logo-formarecap</title><path class="cls-1" d="M11,27.34H48.45L46.8,36.58H18.91L15.8,54.36H40.93l-1.55,9.16H14.25L9.67,89.17H0Z"/><path class="cls-1" d="M54.88,87.78a19.23,19.23,0,0,1-7.3-7.51A21.59,21.59,0,0,1,45,69.74a26.94,26.94,0,0,1,3.28-13.22,24.08,24.08,0,0,1,9.2-9.37,26.77,26.77,0,0,1,13.6-3.41,20.76,20.76,0,0,1,10.75,2.77A19.23,19.23,0,0,1,89.12,54a21.61,21.61,0,0,1,2.59,10.53,26.94,26.94,0,0,1-3.28,13.22,24.08,24.08,0,0,1-9.2,9.37,26.77,26.77,0,0,1-13.6,3.41A20.76,20.76,0,0,1,54.88,87.78Zm19.6-8.16a15.69,15.69,0,0,0,5.53-6,17.14,17.14,0,0,0,2-8.25,13.29,13.29,0,0,0-3.28-9.24A11.2,11.2,0,0,0,70,52.55a14.74,14.74,0,0,0-7.9,2.16,15.41,15.41,0,0,0-5.52,5.91,17,17,0,0,0-2,8.25,13.31,13.31,0,0,0,3.32,9.29,11.29,11.29,0,0,0,8.77,3.67A14.35,14.35,0,0,0,74.48,79.62Z"/><path class="cls-1" d="M102.5,45.12h9l-1,6h.43a13.3,13.3,0,0,1,5.74-5.31A18.27,18.27,0,0,1,125,43.83a12.89,12.89,0,0,1,5.18.86L128.32,54.8a9.71,9.71,0,0,0-2.93-1.21,14.07,14.07,0,0,0-3.46-.43,12.38,12.38,0,0,0-8.8,3.71,16.05,16.05,0,0,0-4.84,9l-4.06,23.32h-9.5Z"/><path class="cls-1" d="M146.37,45.12l-1,5.79h.51q4.85-7.17,14-7.17a13.51,13.51,0,0,1,7.82,2.16,11.59,11.59,0,0,1,4.45,5.87,17.33,17.33,0,0,1,6.43-5.87,19.49,19.49,0,0,1,9.37-2.16q6.39,0,10,3.46a12.06,12.06,0,0,1,3.62,9.15,32.34,32.34,0,0,1-.6,5.7L196.2,89.17h-9.5l4.66-26.6a33,33,0,0,0,.35-3.54,6.09,6.09,0,0,0-1.9-4.8,8,8,0,0,0-5.44-1.68,10.62,10.62,0,0,0-8.16,3.76,18.9,18.9,0,0,0-4.45,9.8l-4.14,23.06h-9.5l4.66-26.6a16.77,16.77,0,0,0,.35-3.46,6.07,6.07,0,0,0-2-4.83,8,8,0,0,0-5.44-1.73,10.54,10.54,0,0,0-8.08,3.8,19.18,19.18,0,0,0-4.44,9.76l-4.06,23.06h-9.5l7.77-44.05Z"/><path class="cls-1" d="M215.37,88.78a13.69,13.69,0,0,1-5.22-4.88,12.9,12.9,0,0,1-2-7,14.27,14.27,0,0,1,5.27-11.65q5.26-4.32,14.77-4.32a29,29,0,0,1,6.3.69,29.41,29.41,0,0,1,5.62,1.81l.43-2.16a11.32,11.32,0,0,0,.26-2.07A6.26,6.26,0,0,0,238,53.89a11.43,11.43,0,0,0-6.87-2,13.75,13.75,0,0,0-11,5.18l-6.82-4.92a21.45,21.45,0,0,1,8.2-6.22,26.35,26.35,0,0,1,10.71-2.16q8.29,0,13,4A13.06,13.06,0,0,1,250,58.25a30.38,30.38,0,0,1-.43,4.58L244.9,89.17h-9.32l.95-5.27H236a15.29,15.29,0,0,1-5.53,4.88,16.63,16.63,0,0,1-7.86,1.77A15,15,0,0,1,215.37,88.78Zm18.91-9.46a14.42,14.42,0,0,0,4.58-8.63,20.85,20.85,0,0,0-4.79-1.9,24.15,24.15,0,0,0-5.92-.61,11.94,11.94,0,0,0-7.43,2.12A7,7,0,0,0,218,76.21a5.84,5.84,0,0,0,2.12,4.71,8,8,0,0,0,5.31,1.77A12.75,12.75,0,0,0,234.28,79.32Z"/><path class="cls-1" d="M265.89,27.34h20.38a20.17,20.17,0,0,1,9.41,2.15,16.08,16.08,0,0,1,6.48,6,16.41,16.41,0,0,1,2.33,8.67,18.77,18.77,0,0,1-4.79,13A22.11,22.11,0,0,1,287.31,64l-.26.43,12.52,24.18-.17.52H288.69L276.51,65h-7.6l-4.32,24.18h-9.67ZM282.3,56a13.27,13.27,0,0,0,8.85-2.93,10.23,10.23,0,0,0,3.5-8.29,8,8,0,0,0-2.47-6,9.32,9.32,0,0,0-6.77-2.38H273.83L270.47,56Z"/><path class="cls-1" d="M316.19,87.78a18.57,18.57,0,0,1-7.08-7.47A21.89,21.89,0,0,1,306.65,70,27.31,27.31,0,0,1,309.84,57a25,25,0,0,1,9-9.67A24.31,24.31,0,0,1,332,43.74a19.69,19.69,0,0,1,10.19,2.55,17.09,17.09,0,0,1,6.56,6.78A19.37,19.37,0,0,1,351,62.31a23.7,23.7,0,0,1-1,6.91H316.24a13.11,13.11,0,0,0-.09,1.9,10.29,10.29,0,0,0,3.41,7.94,11.66,11.66,0,0,0,8,2.94,16.09,16.09,0,0,0,8-1.82,14.63,14.63,0,0,0,5.35-5.44l7.26,4q-7.08,11.82-21.33,11.83A20.32,20.32,0,0,1,316.19,87.78ZM341.8,62v-.69a8.77,8.77,0,0,0-2.9-6.56A10.84,10.84,0,0,0,331.09,52a13.13,13.13,0,0,0-8.51,2.89A15.57,15.57,0,0,0,317.53,62Z"/><path class="cls-1" d="M366.49,87.78a19,19,0,0,1-7.08-7.47A21.57,21.57,0,0,1,356.91,70a27,27,0,0,1,3.28-13.12,24.68,24.68,0,0,1,9.24-9.59,26.19,26.19,0,0,1,13.64-3.54A19.4,19.4,0,0,1,395,47.28a16.67,16.67,0,0,1,6.3,8.81l-8.89,3.37a9.84,9.84,0,0,0-3.89-5.05,11.63,11.63,0,0,0-6.65-1.86,14.62,14.62,0,0,0-7.72,2.12,15,15,0,0,0-5.53,5.91,17.82,17.82,0,0,0-2,8.55,13.22,13.22,0,0,0,3.19,9.07,10.54,10.54,0,0,0,8.29,3.63,13.57,13.57,0,0,0,7.3-2,14.33,14.33,0,0,0,5.05-5.31l7.86,3.72q-6.82,12.25-21.33,12.26A19.76,19.76,0,0,1,366.49,87.78Z"/><path class="cls-1" d="M412.35,88.78a13.79,13.79,0,0,1-5.23-4.88,13,13,0,0,1-1.94-7,14.27,14.27,0,0,1,5.27-11.65q5.26-4.32,14.77-4.32a30.18,30.18,0,0,1,11.91,2.5l.43-2.16a10.5,10.5,0,0,0,.26-2.07,6.25,6.25,0,0,0-2.8-5.31,11.43,11.43,0,0,0-6.87-2,13.75,13.75,0,0,0-11,5.18l-6.82-4.92a21.37,21.37,0,0,1,8.2-6.22,26.35,26.35,0,0,1,10.71-2.16q8.28,0,13,4A13.09,13.09,0,0,1,447,58.25a31.76,31.76,0,0,1-.43,4.58l-4.67,26.34h-9.32l.95-5.27H433a15.29,15.29,0,0,1-5.53,4.88,16.63,16.63,0,0,1-7.86,1.77A15,15,0,0,1,412.35,88.78Zm18.91-9.46a14.47,14.47,0,0,0,4.58-8.63,20.92,20.92,0,0,0-4.8-1.9,24,24,0,0,0-5.91-.61,11.92,11.92,0,0,0-7.43,2.12,7,7,0,0,0-2.76,5.91,5.83,5.83,0,0,0,2.11,4.71,8,8,0,0,0,5.32,1.77A12.77,12.77,0,0,0,431.26,79.32Z"/><path class="cls-1" d="M458.72,45.12h9l-1,5.79h.51a16.14,16.14,0,0,1,6-5.22,18.92,18.92,0,0,1,8.9-1.95,16.91,16.91,0,0,1,9.19,2.59,17.92,17.92,0,0,1,6.44,7.17A22.77,22.77,0,0,1,500,64a28.15,28.15,0,0,1-3.24,13.43,24.72,24.72,0,0,1-9,9.63,24.27,24.27,0,0,1-13,3.54,16.35,16.35,0,0,1-8.24-2.08,12.17,12.17,0,0,1-5.14-5h-.52l-.52,6.13-3.19,18.22h-9.5Zm24.18,34.5a15.07,15.07,0,0,0,5.53-6.08,19,19,0,0,0,2-8.73,12.27,12.27,0,0,0-3.23-8.93,11,11,0,0,0-8.25-3.33,14.28,14.28,0,0,0-7.69,2.2,16,16,0,0,0-5.65,6.13,18.57,18.57,0,0,0-2.12,8.94,11.8,11.8,0,0,0,3.28,8.68A11.07,11.07,0,0,0,475,81.83,14.72,14.72,0,0,0,482.9,79.62Z"/><path class="cls-1" d="M53.67.57H64a10,10,0,0,1,4.75,1.15A9.11,9.11,0,0,1,72.23,5a8.65,8.65,0,0,1,1.3,4.69,8.65,8.65,0,0,1-1.3,4.69,9.11,9.11,0,0,1-3.49,3.23A10,10,0,0,1,64,18.72H57.27V31.21h-3.6Zm10.4,14.68a5.62,5.62,0,0,0,3-.81,5.91,5.91,0,0,0,2-2.1,5.36,5.36,0,0,0,0-5.4,5.8,5.8,0,0,0-2-2.09,5.62,5.62,0,0,0-3-.82h-6.8V15.25Z"/><path class="cls-1" d="M80.38,30.36a10.77,10.77,0,0,1-4-4.2,12.08,12.08,0,0,1-1.44-5.86,12.05,12.05,0,0,1,1.44-5.86,10.77,10.77,0,0,1,4-4.2,11.62,11.62,0,0,1,11.56,0,10.84,10.84,0,0,1,4,4.2,12,12,0,0,1,1.43,5.86,12.07,12.07,0,0,1-1.43,5.86,10.84,10.84,0,0,1-4,4.2,11.62,11.62,0,0,1-11.56,0ZM89.9,27.6a7.47,7.47,0,0,0,2.79-2.89,8.93,8.93,0,0,0,1-4.41,8.93,8.93,0,0,0-1-4.41A7.47,7.47,0,0,0,89.9,13a7.3,7.3,0,0,0-3.74-1,7.4,7.4,0,0,0-6.57,3.89,8.93,8.93,0,0,0-1,4.41,8.93,8.93,0,0,0,1,4.41,7.4,7.4,0,0,0,6.57,3.89A7.3,7.3,0,0,0,89.9,27.6Z"/><path class="cls-1" d="M101.18,9.38h3.47v3.21h.17a7.56,7.56,0,0,1,2.83-2.78,7.7,7.7,0,0,1,4-1.11,7.38,7.38,0,0,1,4.17,1.16,6.45,6.45,0,0,1,2.55,3.08,8.85,8.85,0,0,1,3.06-3.08,8.3,8.3,0,0,1,4.43-1.16A6.94,6.94,0,0,1,131.51,11a9.45,9.45,0,0,1,1.91,6.23v14h-3.6V17.77a6.43,6.43,0,0,0-1.24-4.4A4.7,4.7,0,0,0,124.9,12a5,5,0,0,0-3,.94,6.43,6.43,0,0,0-2.07,2.52,7.93,7.93,0,0,0-.75,3.43V31.21h-3.64V17.82c0-2.06-.41-3.54-1.24-4.45A4.64,4.64,0,0,0,110.6,12a4.91,4.91,0,0,0-2.95,1,6.46,6.46,0,0,0-2.08,2.57,8,8,0,0,0-.75,3.44V31.21h-3.64Z"/><path class="cls-1" d="M138.47,9.38h3.46v3.26h.17a7.87,7.87,0,0,1,3-2.81,8.94,8.94,0,0,1,4.47-1.13,9.82,9.82,0,0,1,5.31,1.5,10.45,10.45,0,0,1,3.77,4.15,12.81,12.81,0,0,1,1.37,6,12.75,12.75,0,0,1-1.37,6,10.46,10.46,0,0,1-3.77,4.13,9.82,9.82,0,0,1-5.31,1.5,8.94,8.94,0,0,1-4.47-1.13,8,8,0,0,1-3-2.77h-.17l.17,3v9.46h-3.63Zm14.21,18.2a7.48,7.48,0,0,0,2.67-2.94,9.14,9.14,0,0,0,1-4.34,9.11,9.11,0,0,0-1-4.34A7.48,7.48,0,0,0,152.68,13a6.71,6.71,0,0,0-7.11,0,7.33,7.33,0,0,0-2.65,2.91,9.26,9.26,0,0,0-1,4.37,9.26,9.26,0,0,0,1,4.37,7.33,7.33,0,0,0,2.65,2.91,6.71,6.71,0,0,0,7.11,0Z"/><path class="cls-1" d="M164.32,4.59a2.52,2.52,0,0,1-.77-1.84,2.46,2.46,0,0,1,.77-1.82,2.63,2.63,0,0,1,3.68,0,2.43,2.43,0,0,1,.77,1.82A2.54,2.54,0,0,1,168,4.59a2.61,2.61,0,0,1-3.7,0Zm0,4.79H168V31.21h-3.6Z"/><path class="cls-1" d="M177.59,30.4a10.28,10.28,0,0,1-3.87-4.13,12.45,12.45,0,0,1-1.39-5.93,13,13,0,0,1,1.3-5.82,10.65,10.65,0,0,1,3.7-4.24A9.93,9.93,0,0,1,182.9,8.7a10.53,10.53,0,0,1,5.56,1.43,9.56,9.56,0,0,1,3.62,4,12.8,12.8,0,0,1,1.26,5.78,4,4,0,0,1-.13,1.11H176a8.72,8.72,0,0,0,1.2,4.2,7,7,0,0,0,2.72,2.57,7.4,7.4,0,0,0,3.45.85,7.1,7.1,0,0,0,6.46-3.93l3.08,1.49a11,11,0,0,1-3.83,4.2,11.54,11.54,0,0,1-11.45,0ZM189.49,18a7.08,7.08,0,0,0-.77-2.74,5.94,5.94,0,0,0-2.16-2.31,6.76,6.76,0,0,0-3.7-.94,6.18,6.18,0,0,0-4.35,1.64A8,8,0,0,0,176.18,18Z"/><path class="cls-1" d="M197.58,9.38h3.47v3.51h.17a5.85,5.85,0,0,1,2.48-3,7.23,7.23,0,0,1,6.42-.75v3.94a6.74,6.74,0,0,0-3.08-.69,5.05,5.05,0,0,0-2.91.9A6.48,6.48,0,0,0,202,15.74a7,7,0,0,0-.79,3.28V31.21h-3.64Z"/></svg>